# xmcd
#
# Track frame offsets:
#	150
#	17100
#	31249
#	51017
#	63292
#	79747
#	89204
#	109469
#	121169
#	140752
#	157228
#	176562
#	193880
#	213263
#	235122
#	254721
#	272711
#	292118
#	307534
#
# Disc length: 4380 seconds
#
# Revision: 1
# Processed by: cddbd v1.4PL0 Copyright (c) Steve Scherf et al.
# Submitted via: audiograbber 1.80
#
DISCID=1d111a13
DTITLE=De Gregori F.  - Il meglio
DYEAR=1900
DGENRE=
TTITLE0=Alice
TTITLE1=Niente da capire
TTITLE2=Pablo
TTITLE3=Pianobar
TTITLE4=Rimmel
TTITLE5=Buonanotte fiorellino
TTITLE6=Buffalo Bill
TTITLE7=Natale
TTITLE8=Generale
TTITLE9=Ma come fanno i marinai
TTITLE10=Cosa sará
TTITLE11=Viva L´Italia
TTITLE12=Stella stellina
TTITLE13=Gesú Bambino
TTITLE14=Titanic
TTITLE15=I muscoli del capitano
TTITLE16=La leva calcistica ......
TTITLE17=Centocinquanta stelle
TTITLE18=La donna cannone
EXTD=
EXTT0=
EXTT1=
EXTT2=
EXTT3=
EXTT4=
EXTT5=
EXTT6=
EXTT7=
EXTT8=
EXTT9=
EXTT10=
EXTT11=
EXTT12=
EXTT13=
EXTT14=
EXTT15=
EXTT16=
EXTT17=
EXTT18=
PLAYORDER=
